<svg width="256" height="256" viewBox="0 0 256 256" fill="none" xmlns="http://www.w3.org/2000/svg">
<g clip-path="url(#clip0_48_2)">
<path d="M208 0H48C21.4903 0 0 21.4903 0 48V208C0 234.51 21.4903 256 48 256H208C234.51 256 256 234.51 256 208V48C256 21.4903 234.51 0 208 0Z" fill="#059669"/>
<path d="M123.845 196.636V60.2727H132.58V196.636H123.845ZM147.016 105.283C146.59 100.987 144.761 97.6484 141.529 95.2692C138.298 92.8899 133.912 91.7003 128.372 91.7003C124.608 91.7003 121.43 92.233 118.837 93.2983C116.245 94.3281 114.256 95.7663 112.872 97.6129C111.522 99.4595 110.847 101.555 110.847 103.898C110.776 105.852 111.185 107.556 112.073 109.012C112.996 110.468 114.256 111.729 115.854 112.794C117.453 113.824 119.299 114.729 121.394 115.511C123.489 116.256 125.727 116.896 128.106 117.428L137.907 119.772C142.666 120.837 147.033 122.258 151.011 124.033C154.988 125.809 158.433 127.993 161.345 130.585C164.256 133.178 166.511 136.232 168.109 139.747C169.743 143.263 170.578 147.293 170.613 151.839C170.578 158.515 168.873 164.303 165.499 169.204C162.161 174.069 157.332 177.851 151.011 180.55C144.725 183.213 137.144 184.545 128.266 184.545C119.459 184.545 111.788 183.195 105.254 180.496C98.7558 177.798 93.6776 173.803 90.02 168.511C86.3978 163.185 84.498 156.597 84.3204 148.749H106.639C106.888 152.407 107.935 155.461 109.782 157.911C111.664 160.326 114.168 162.155 117.293 163.398C120.453 164.605 124.022 165.209 127.999 165.209C131.906 165.209 135.297 164.641 138.173 163.504C141.085 162.368 143.34 160.788 144.938 158.763C146.536 156.739 147.335 154.413 147.335 151.786C147.335 149.335 146.607 147.276 145.151 145.607C143.731 143.937 141.636 142.517 138.866 141.345C136.131 140.173 132.776 139.108 128.798 138.149L116.92 135.166C107.722 132.929 100.46 129.431 95.1336 124.673C89.8069 119.914 87.1613 113.504 87.1968 105.443C87.1613 98.8381 88.9191 93.0675 92.4703 88.1314C96.0569 83.1953 100.975 79.3423 107.225 76.5724C113.475 73.8026 120.578 72.4176 128.532 72.4176C136.629 72.4176 143.695 73.8026 149.732 76.5724C155.805 79.3423 160.528 83.1953 163.901 88.1314C167.275 93.0675 169.015 98.7848 169.122 105.283H147.016Z" fill="#ECFDF5"/>
</g>
<defs>
<clipPath id="clip0_48_2">
<rect width="256" height="256" fill="white"/>
</clipPath>
</defs>
</svg>


